<svg id="Layer_1" data-name="Layer 1" xmlns="http://www.w3.org/2000/svg" viewBox="0 0 314.18 43.97"><defs><style>.cls-1{fill:#fff;}</style></defs><title>Smartbytes_Logo_Slogan_White</title><path class="cls-1" d="M233,20.17c-2,0-3.55.93-3.55,3.8s1.59,3.74,3.54,3.74,3.53-.88,3.53-3.74S235,20.17,233,20.17Zm0,6.69c-1.53,0-2.51-.57-2.51-2.86s.93-2.95,2.5-2.95,2.49.61,2.49,2.95S234.52,26.86,233,26.86Z"/><path class="cls-1" d="M219.87,24c0,2.36,1.29,3.66,3.24,3.66h2.31v-.87h-2.23c-1.67,0-2.3-1-2.3-2.79s.63-2.81,2.3-2.81h2.23v-.87h-2.31C221.16,20.27,219.87,21.57,219.87,24Z"/><rect class="cls-1" x="226.88" y="20.27" width="1.03" height="7.34"/><path class="cls-1" d="M217.58,24.7c0,1.63-.44,2.16-2,2.16s-2-.53-2-2.16V20.27h-1v4.55c0,1.87.89,2.89,3,2.89s3-1,3-2.89V20.27h-1Z"/><path class="cls-1" d="M194.88,23.46h-1.46c-.74,0-1.22-.24-1.22-1.12s.55-1.2,1.31-1.2h3.18v-.87H193.6c-1.43,0-2.4.65-2.4,2.08s.85,2,2.22,2h1.48c.72,0,1.21.24,1.21,1.2s-.62,1.2-1.31,1.2h-3.45v.87h3.4c1.41,0,2.38-.68,2.38-2.1S196.28,23.46,194.88,23.46Z"/><path class="cls-1" d="M201.64,20.17c-1.94,0-3.54.93-3.54,3.8s1.58,3.74,3.53,3.74,3.53-.88,3.53-3.74S203.58,20.17,201.64,20.17Zm0,6.69c-1.53,0-2.5-.57-2.5-2.86s.93-2.95,2.49-2.95,2.49.61,2.49,2.95S203.14,26.86,201.64,26.86Z"/><polygon class="cls-1" points="207.61 20.27 206.61 20.27 206.61 27.61 211.61 27.61 211.61 26.74 207.61 26.74 207.61 20.27"/><path class="cls-1" d="M298.94,24.76a2.06,2.06,0,0,0,1.8-2.26c0-1.45-.84-2.23-2.65-2.23h-3.24v7.34h1V24.84h1.51c.63,0,.81.19,1.24.87l1.2,1.9h1.12l-1.26-2A2.13,2.13,0,0,0,298.94,24.76Zm-1-.79h-2.09V21.14h2.09c1.32,0,1.76.35,1.76,1.42S299.15,24,297.94,24Z"/><polygon class="cls-1" points="272.6 24.24 276.57 24.24 276.57 23.43 272.6 23.43 272.6 21.14 276.93 21.14 276.93 20.27 271.59 20.27 271.59 27.61 277.01 27.61 277.01 26.74 272.6 26.74 272.6 24.24"/><path class="cls-1" d="M242.82,26.31s-.3-.6-.6-1.08l-3.09-5H238v7.34h.94V21.52s.27.56.64,1.16l3.08,4.93h1.11V20.27h-.94Z"/><path class="cls-1" d="M282.61,25.09c-.21.6-.48,1.53-.48,1.53s-.29-.93-.5-1.53l-1.79-4.82h-1.36v7.34h.95V23.36c0-.74-.05-1.88-.05-1.88s.32,1.11.57,1.79l1.61,4.34h1l1.6-4.34c.26-.68.58-1.79.58-1.79s-.05,1.14-.05,1.88v4.25h1V20.27h-1.36Z"/><polygon class="cls-1" points="303.31 26.74 303.31 24.24 307.28 24.24 307.28 23.43 303.31 23.43 303.31 21.14 307.64 21.14 307.64 20.27 302.3 20.27 302.3 27.61 307.72 27.61 307.72 26.74 303.31 26.74"/><path class="cls-1" d="M290.59,20.27H287.5v7.34h1V25.32h2.08c2.09,0,2.9-1,2.9-2.52S292.59,20.27,290.59,20.27Zm-.14,4.18H288.5V21.14h1.95c1.55,0,2,.49,2,1.72S291.89,24.45,290.45,24.45Z"/><polygon class="cls-1" points="250.96 26.74 246.63 26.74 246.63 24.24 250.6 24.24 250.6 23.43 246.63 23.43 246.63 21.14 250.96 21.14 250.96 20.27 245.63 20.27 245.63 27.61 250.96 27.61 250.96 26.74"/><path class="cls-1" d="M264.83,23.46h-1.46c-.74,0-1.22-.24-1.22-1.12s.55-1.2,1.31-1.2h3.18v-.87h-3.08c-1.43,0-2.41.65-2.41,2.08s.86,2,2.22,2h1.48c.72,0,1.22.24,1.22,1.2s-.63,1.2-1.32,1.2H261.3v.87h3.4c1.41,0,2.38-.68,2.38-2.1S266.23,23.46,264.83,23.46Z"/><path class="cls-1" d="M255.72,23.46h-1.47c-.73,0-1.21-.24-1.21-1.12s.55-1.2,1.31-1.2h3.18v-.87h-3.08c-1.43,0-2.41.65-2.41,2.08s.85,2,2.21,2h1.48c.73,0,1.22.24,1.22,1.2s-.62,1.2-1.31,1.2h-3.45v.87h3.4c1.41,0,2.38-.68,2.38-2.1S257.12,23.46,255.72,23.46Z"/><rect class="cls-1" x="268.59" y="20.27" width="1.02" height="7.34"/><path class="cls-1" d="M59.34,19.68a36.47,36.47,0,0,0-5.5.39l.83-3.53a35.48,35.48,0,0,1,6.54-.49c5.56,0,6.61,2.1,5.59,6.39L65,30.05H59.77l.33-1.37a6.76,6.76,0,0,1-4.81,1.62c-3.57,0-5-1.26-4.27-4.19.78-3.31,3.06-4.08,6.63-4.24a38.06,38.06,0,0,0,4.1-.32c.26-1.5-.23-1.88-2.41-1.88m1.82,4.52a22.31,22.31,0,0,1-2.49.26c-1.67.06-2.16.28-2.39,1.27s.1,1.37,1.64,1.37,2.7-.61,3-1.79Z"/><path class="cls-1" d="M79.67,16.06c.46,0,1.32.07,1.52.1l-1,3.45a9.91,9.91,0,0,0-2.61.2c-2.56.54-3.36,3.12-3.9,5.41L72.55,30H67.14l3.27-13.82h5.41L75.29,18c1.15-1.62,2.5-2,4.38-2"/><path class="cls-1" d="M81.43,19.69l.82-3.47h2.12l1-4.27h5.41l-1,4.26h3.72l-.83,3.47H89l-1,4.24c-.44,1.87-.09,2.48,1.26,2.48a11.15,11.15,0,0,0,1.57-.13l-.86,3.63a25.54,25.54,0,0,1-2.94.22c-4.19,0-5.59-1.33-4.5-5.94l1.06-4.49Z"/><path class="cls-1" d="M97.49,30H92.08L96.85,9.87h5.41l-1.89,8A5.41,5.41,0,0,1,105,15.88c4,0,5.46,2.35,4.33,7.15-1.18,5-3.76,7.29-7.76,7.3-2.06,0-3.21-.6-3.7-1.74Zm1.32-5.56c-.38,1.59,0,2.38,1.71,2.38s2.53-1.08,3.15-3.69.38-3.57-1.43-3.57-2.47.83-2.89,2.58Z"/><path class="cls-1" d="M107.37,35.54l.91-3.85a5.57,5.57,0,0,0,1.23.13c1.66,0,2.54-.61,3.56-2.17l-2.9-13.46h5.9l.78,5.79a21.92,21.92,0,0,1-.1,3.92,30.92,30.92,0,0,1,1.71-3.95l3.39-5.76h5.38L117.85,30.6c-2.56,3.95-4.92,5.22-8.06,5.22a7.34,7.34,0,0,1-2.42-.28"/><path class="cls-1" d="M127.08,19.64l.82-3.47H130l1-4.27h5.4l-1,4.26h3.72l-.82,3.47h-3.72l-1,4.24c-.44,1.88-.09,2.48,1.26,2.48a11.29,11.29,0,0,0,1.57-.13l-.86,3.63a25.54,25.54,0,0,1-2.94.22c-4.19,0-5.59-1.33-4.5-5.94l1.07-4.49Z"/><path class="cls-1" d="M147.12,26.66a50,50,0,0,0,5.11-.3l-.8,3.37a32,32,0,0,1-5.59.39c-6.18,0-8.18-2.18-7-7.12s4.61-7.16,9.5-7.17c5.17,0,6.91,2.35,5.86,6.81l-.43,1.78h-9.71c-.14,1.78.68,2.23,3.07,2.23m.6-7.74c-1.47,0-2.45.48-3.17,2.74h4.92c.35-2.14-.21-2.74-1.75-2.74"/><path class="cls-1" d="M154.28,29.8l.82-3.47a30.44,30.44,0,0,0,5,.31c2.59,0,3.15-.16,3.31-.86s-.2-.86-2.87-.86c-3.5,0-5.17-.88-4.35-4.33S159.2,16,164,16a39.37,39.37,0,0,1,5.8.31l-.82,3.43a33.25,33.25,0,0,0-4.63-.28c-2.28,0-3,.17-3.11.8s.24.8,2.82.8c3.54,0,5.24,1,4.47,4.25-.85,3.6-2.78,4.75-8.29,4.76a41.66,41.66,0,0,1-5.92-.28"/><path class="cls-1" d="M47.56,15.94a5.83,5.83,0,0,0-5.12,2.3C42.1,16.55,40.8,16,38.62,16a4.87,4.87,0,0,0-4.41,2.14l.43-1.93H20.09c-4.3.11-6.36,1.28-7.14,4.58s.85,4.33,4.36,4.32c2.67,0,3,.13,2.87.86s-.73.86-3.31.86-7,0-7,0L7.72,30.23h10c5-.1,6.78-1.3,7.59-4.74.78-3.28-.92-4.26-4.46-4.26-2.58,0-3-.16-2.82-.79s.83-.8,3.11-.8h7.31L26,30.09h5.41l1.79-7.58c.47-2,.88-2.67,2.41-2.67s1.6.66,1.13,2.67l-1.8,7.57h5.41l1.8-7.58c.47-2,.84-2.67,2.41-2.67s1.6.66,1.12,2.67l-1.79,7.57h5.41l1.8-7.64C52.25,17.43,51,15.94,47.56,15.94Z"/><rect class="cls-1" x="179.46" y="9.87" width="1.17" height="25.96"/></svg>